<?xml version="1.0" encoding="UTF-8"?>
<!DOCTYPE svg PUBLIC "-//W3C//DTD SVG 1.1//EN" "http://www.w3.org/Graphics/SVG/1.1/DTD/svg11.dtd">
<svg xmlns:xlink="http://www.w3.org/1999/xlink" viewBox="0 0 600 360" xmlns="http://www.w3.org/2000/svg">
  <g id="scruffy_graph">
    <g transform="translate(0.0, 0.0)" id="background">
      <rect width="600.0" fill="#ffffff" x="0" height="360.0" y="0"/>
    </g>
    <g transform="translate(30.0, 7.2)" id="title">
    </g>
    <g transform="translate(12.0, 93.6)" id="view">
      <g>
        <g transform="translate(0.0, 4.752)" id="values">
          <text fill="#000000" text-anchor="end" font-size="16.91712" x="96.12" font-family="Helvetica" y="211.464">0.00</text>
          <text fill="#000000" text-anchor="end" font-size="16.91712" x="96.12" font-family="Helvetica" y="158.598">0.58</text>
          <text fill="#000000" text-anchor="end" font-size="16.91712" x="96.12" font-family="Helvetica" y="105.732">1.16</text>
          <text fill="#000000" text-anchor="end" font-size="16.91712" x="96.12" font-family="Helvetica" y="52.866">1.74</text>
          <text fill="#000000" text-anchor="end" font-size="16.91712" x="96.12" font-family="Helvetica" y="0.0">2.32</text>
        </g>
        <g transform="translate(106.8, 0.0)" id="grid">
          <line x1="0" y1="0.0" x2="427.2" y2="0.0" style="stroke: #000000; stroke-width: 0.5;"/>
          <line x1="0" y1="52.866" x2="427.2" y2="52.866" style="stroke: #000000; stroke-width: 0.5;"/>
          <line x1="0" y1="105.732" x2="427.2" y2="105.732" style="stroke: #000000; stroke-width: 0.5;"/>
          <line x1="0" y1="158.598" x2="427.2" y2="158.598" style="stroke: #000000; stroke-width: 0.5;"/>
          <line x1="0" y1="211.464" x2="427.2" y2="211.464" style="stroke: #000000; stroke-width: 0.5;"/>
        </g>
        <g transform="translate(106.8, 218.592)" id="labels">
          <text fill="#000000" text-anchor="middle" font-size="17.1072" x="0.0" font-family="Helvetica" y="19.008">10</text>
          <text fill="#000000" text-anchor="middle" font-size="17.1072" x="47.4666666666667" font-family="Helvetica" y="19.008">20</text>
          <text fill="#000000" text-anchor="middle" font-size="17.1072" x="94.9333333333333" font-family="Helvetica" y="19.008">30</text>
          <text fill="#000000" text-anchor="middle" font-size="17.1072" x="142.4" font-family="Helvetica" y="19.008">40</text>
          <text fill="#000000" text-anchor="middle" font-size="17.1072" x="189.866666666667" font-family="Helvetica" y="19.008">50</text>
          <text fill="#000000" text-anchor="middle" font-size="17.1072" x="237.333333333333" font-family="Helvetica" y="19.008">60</text>
          <text fill="#000000" text-anchor="middle" font-size="17.1072" x="284.8" font-family="Helvetica" y="19.008">70</text>
          <text fill="#000000" text-anchor="middle" font-size="17.1072" x="332.266666666667" font-family="Helvetica" y="19.008">80</text>
          <text fill="#000000" text-anchor="middle" font-size="17.1072" x="379.733333333333" font-family="Helvetica" y="19.008">90</text>
          <text fill="#000000" text-anchor="middle" font-size="17.1072" x="427.2" font-family="Helvetica" y="19.008">100</text>
        </g>
        <g transform="translate(106.8, 0.0)" id="graphs">
          <g class="graph_layer" id="component_graphs_graph_0">
            <polyline fill="none" points="0.0,16.1511659799264 4.31515151515152,16.8728221443795 8.63030303030303,2.53491396497546 12.9454545454545,31.3082088382514 17.2606060606061,2.53491396497546 21.5757575757576,2.53491396497546 25.8909090909091,4.06530632992434 30.2060606060606,2.53491396497546 34.5212121212121,35.5519693712175 38.8363636363636,43.6040862892513 43.1515151515152,3.41145131411037 47.4666666666667,31.0299397903139 51.7818181818182,2.53491396497546 56.0969696969697,2.53491396497546 60.4121212121212,17.8832671080239 64.7272727272727,38.8209842385527 69.0424242424242,6.7469885329117 73.3575757575758,0.0 77.6727272727273,17.386641396425 81.9878787878788,36.5418708973735 86.3030303030303,2.76625154260054 90.6181818181818,31.1250970283937 94.9333333333333,2.76625154260054 99.2484848484848,9.37108651799562 103.563636363636,34.1328466250358 107.878787878788,29.3086172713249 112.193939393939,33.2804003270757 116.509090909091,37.779797714993 120.824242424242,31.257165158577 125.139393939394,39.8528773307049 129.454545454545,6.62263668320992 133.769696969697,30.4104801600436 138.084848484848,37.8716443030939 142.4,11.2192020194412 146.715151515152,7.44572535662354 151.030303030303,34.3822979387295 155.345454545455,31.7515526945905 159.660606060606,36.2961489405466 163.975757575758,36.7955046159909 168.290909090909,36.7955046159909 172.606060606061,19.6814395849911 176.921212121212,36.7955046159909 181.236363636364,6.38578815978661 185.551515151515,6.38578815978661 189.866666666667,3.12474909127693 194.181818181818,6.38578815978661 198.49696969697,33.9097158730201 202.812121212121,6.38578815978661 207.127272727273,9.05278901442446 211.442424242424,6.38578815978661 215.757575757576,35.4103102576762 220.072727272727,1.88831211993855 224.387878787879,33.4037374975209 228.70303030303,34.096986181463 233.018181818182,6.2128976385915 237.333333333333,31.1399493441804 241.648484848485,11.3831984114656 245.963636363636,33.6996811238479 250.278787878788,31.0648683866822 254.593939393939,31.0648683866822 258.909090909091,31.0648683866822 263.224242424242,31.0648683866822 267.539393939394,33.4283996270343 271.854545454545,34.933069599879 276.169696969697,8.13600964398506 280.484848484848,8.13600964398506 284.8,8.13600964398506 289.115151515152,8.13600964398506 293.430303030303,19.8580405182731 297.745454545455,8.13600964398506 302.060606060606,8.13600964398506 306.375757575758,4.7746644388352 310.690909090909,8.13600964398506 315.006060606061,8.13600964398506 319.321212121212,8.13600964398506 323.636363636364,42.5061707759709 327.951515151515,3.27304306742235 332.266666666667,31.4209413542528 336.581818181818,34.7261850348649 340.89696969697,34.5810684867156 345.212121212121,31.0841274755021 349.527272727273,40.1999081180222 353.842424242424,32.9536027388383 358.157575757576,13.8207892362751 362.472727272727,0.919740997677451 366.787878787879,44.3511660484004 371.10303030303,33.1947637455088 375.418181818182,6.04459350902155 379.733333333333,45.8900701894359 384.048484848485,34.5581569138601 388.363636363636,19.9261249246458 392.678787878788,19.1689616713477 396.993939393939,38.6242344591317 401.309090909091,1.19161091617417 405.624242424242,5.70112686977706 409.939393939394,33.5934385496099 414.254545454545,1.42345119462854 418.569696969697,36.8290180143676 422.884848484849,1.59609895088579 427.2,36.8290180143676" stroke="red" stroke-width="2"/>
          </g>
          <g class="graph_layer" id="component_graphs_graph_1">
            <polyline fill="none" points="0.0,11.6578432686807 4.31515151515152,93.6091989811504 8.63030303030303,101.848168419457 12.9454545454545,77.1816179099882 17.2606060606061,86.2968163544676 21.5757575757576,86.2968163544676 25.8909090909091,86.2968163544676 30.2060606060606,83.1166917210321 34.5212121212121,99.0318580337345 38.8363636363636,99.0318580337345 43.1515151515152,124.325865440716 47.4666666666667,124.325865440716 51.7818181818182,106.818550871912 56.0969696969697,124.325865440716 60.4121212121212,124.325865440716 64.7272727272727,97.9984919630631 69.0424242424242,106.977209573401 73.3575757575758,124.325865440716 77.6727272727273,112.479922463174 81.9878787878788,112.479922463174 86.3030303030303,112.479922463174 90.6181818181818,116.420248306494 94.9333333333333,116.420248306494 99.2484848484848,112.479922463174 103.563636363636,116.420248306494 107.878787878788,112.479922463174 112.193939393939,112.479922463174 116.509090909091,112.479922463174 120.824242424242,112.479922463174 125.139393939394,112.479922463174 129.454545454545,112.479922463174 133.769696969697,125.572350830285 138.084848484848,112.479922463174 142.4,112.479922463174 146.715151515152,116.638964370768 151.030303030303,99.3569848406383 155.345454545455,116.167146899535 159.660606060606,82.6899544336226 163.975757575758,112.479922463174 168.290909090909,120.616416260364 172.606060606061,99.3569848406383 176.921212121212,115.746347772788 181.236363636364,121.90783770717 185.551515151515,161.836438399579 189.866666666667,161.836438399579 194.181818181818,161.836438399579 198.49696969697,161.836438399579 202.812121212121,161.836438399579 207.127272727273,161.836438399579 211.442424242424,161.836438399579 215.757575757576,161.836438399579 220.072727272727,161.836438399579 224.387878787879,161.836438399579 228.70303030303,161.836438399579 233.018181818182,161.836438399579 237.333333333333,140.777772585097 241.648484848485,140.777772585097 245.963636363636,140.777772585097 250.278787878788,162.920806075455 254.593939393939,162.920806075455 258.909090909091,120.616416260364 263.224242424242,162.920806075455 267.539393939394,162.920806075455 271.854545454545,162.920806075455 276.169696969697,162.920806075455 280.484848484848,162.920806075455 284.8,162.920806075455 289.115151515152,162.920806075455 293.430303030303,119.456314166145 297.745454545455,162.920806075455 302.060606060606,118.320971305403 306.375757575758,162.920806075455 310.690909090909,162.920806075455 315.006060606061,162.920806075455 319.321212121212,118.320971305403 323.636363636364,118.320971305403 327.951515151515,162.920806075455 332.266666666667,162.920806075455 336.581818181818,162.920806075455 340.89696969697,118.320971305403 345.212121212121,118.320971305403 349.527272727273,162.920806075455 353.842424242424,162.920806075455 358.157575757576,162.920806075455 362.472727272727,162.920806075455 366.787878787879,162.920806075455 371.10303030303,162.920806075455 375.418181818182,162.920806075455 379.733333333333,162.920806075455 384.048484848485,162.920806075455 388.363636363636,162.920806075455 392.678787878788,107.742258863131 396.993939393939,163.220005855459 401.309090909091,163.220005855459 405.624242424242,163.220005855459 409.939393939394,163.220005855459 414.254545454545,163.220005855459 418.569696969697,163.220005855459 422.884848484849,163.220005855459 427.2,107.742258863131" stroke="blue" stroke-width="2"/>
          </g>
          <g class="graph_layer" id="component_graphs_graph_2">
            <polyline fill="none" points="0.0,10.1953111677278 4.31515151515152,30.0709577166394 8.63030303030303,44.2492339972832 12.9454545454545,49.7407085122439 17.2606060606061,54.3615516027644 21.5757575757576,58.9858673175247 25.8909090909091,63.8619714809554 30.2060606060606,61.6058734454296 34.5212121212121,61.0259829330403 38.8363636363636,66.394768153107 43.1515151515152,64.4435284245511 47.4666666666667,70.4974936793353 51.7818181818182,63.7554265125454 56.0969696969697,67.9917926295155 60.4121212121212,68.7678780923321 64.7272727272727,63.985769927977 69.0424242424242,64.9008366737526 73.3575757575758,67.3263999572204 77.6727272727273,65.0160779969271 81.9878787878788,63.4551723097535 86.3030303030303,66.1842936322266 90.6181818181818,62.1682184264604 94.9333333333333,65.6047673559652 99.2484848484848,61.9497599134682 103.563636363636,68.5942138010517 107.878787878788,69.0724584482868 112.193939393939,62.4239674000679 116.509090909091,66.3169122872493 120.824242424242,68.1740359139638 125.139393939394,71.409087813521 129.454545454545,69.5282526336466 133.769696969697,61.4456971751961 138.084848484848,65.5336222730656 142.4,64.9913693736918 146.715151515152,66.4667284778271 151.030303030303,67.5330497803475 155.345454545455,74.4296731801799 159.660606060606,71.0325818947321 163.975757575758,69.5600936980183 168.290909090909,73.5686311609986 172.606060606061,73.516600313214 176.921212121212,68.8248227209747 181.236363636364,68.4052004071331 185.551515151515,68.5237225926878 189.866666666667,70.6561183640115 194.181818181818,70.9477051853456 198.49696969697,70.0952942307588 202.812121212121,71.5524978679088 207.127272727273,75.2720598647061 211.442424242424,77.6563901038382 215.757575757576,75.1264588881861 220.072727272727,76.4282136354953 224.387878787879,75.9231423219299 228.70303030303,76.6392155323874 233.018181818182,75.0352241013083 237.333333333333,70.3383526086212 241.648484848485,72.3843280304385 245.963636363636,73.3189289698277 250.278787878788,66.0270159389636 254.593939393939,61.8564314623519 258.909090909091,63.1222453697345 263.224242424242,64.1156458427272 267.539393939394,66.967217292282 271.854545454545,70.3827811493929 276.169696969697,67.5692800214381 280.484848484848,72.1162637875577 284.8,72.9817595334326 289.115151515152,69.0198185517491 293.430303030303,70.2963780144581 297.745454545455,74.2582026230538 302.060606060606,73.4461448621889 306.375757575758,68.6343579761511 310.690909090909,74.5853921519882 315.006060606061,77.2286533766512 319.321212121212,77.5875544371422 323.636363636364,72.2497084375551 327.951515151515,73.3919461794999 332.266666666667,67.9521232883837 336.581818181818,72.1756839117108 340.89696969697,67.8923163016821 345.212121212121,66.0428564856533 349.527272727273,63.312237797127 353.842424242424,66.9260384667011 358.157575757576,66.8392518909768 362.472727272727,62.5096149903832 366.787878787879,71.2865311361322 371.10303030303,69.634483345297 375.418181818182,71.8404729360353 379.733333333333,71.0108147462373 384.048484848485,71.2397538245406 388.363636363636,76.6237134748873 392.678787878788,75.0835557329915 396.993939393939,74.8533743295727 401.309090909091,76.1102044777892 405.624242424242,76.2973134001754 409.939393939394,77.6380636760628 414.254545454545,83.1482585946324 418.569696969697,81.4346004861004 422.884848484849,76.2098544141452 427.2,79.185828297835" stroke="green" stroke-width="2"/>
          </g>
        </g>
      </g>
    </g>
    <g transform="translate(30.0, 46.8)" id="legend">
      <rect width="10.8" fill="red" x="66.2" height="10.8" y="0"/>
      <text fill="#000000" font-size="13.608" x="85.64" font-family="Helvetica" style="color: #000000" y="10.206">Best entropy</text>
      <rect width="10.8" fill="blue" x="228.2" height="10.8" y="0"/>
      <text fill="#000000" font-size="13.608" x="247.64" font-family="Helvetica" style="color: #000000" y="10.206">Worst entropy</text>
      <rect width="10.8" fill="green" x="401.0" height="10.8" y="0"/>
      <text fill="#000000" font-size="13.608" x="420.44" font-family="Helvetica" style="color: #000000" y="10.206">Average entropy</text>
    </g>
  </g>
</svg>
