<?xml version="1.0" encoding="UTF-8"?>
<!DOCTYPE svg PUBLIC "-//W3C//DTD SVG 1.1//EN" "http://www.w3.org/Graphics/SVG/1.1/DTD/svg11.dtd">
<svg xmlns:xlink="http://www.w3.org/1999/xlink" viewBox="0 0 600 360" xmlns="http://www.w3.org/2000/svg">
  <g id="scruffy_graph">
    <g transform="translate(0.0, 0.0)" id="background">
      <rect width="600.0" fill="#ffffff" x="0" height="360.0" y="0"/>
    </g>
    <g transform="translate(30.0, 7.2)" id="title">
    </g>
    <g transform="translate(12.0, 93.6)" id="view">
      <g>
        <g transform="translate(0.0, 4.752)" id="values">
          <text fill="#000000" text-anchor="end" font-size="16.91712" x="96.12" font-family="Helvetica" y="211.464">0.00</text>
          <text fill="#000000" text-anchor="end" font-size="16.91712" x="96.12" font-family="Helvetica" y="158.598">0.25</text>
          <text fill="#000000" text-anchor="end" font-size="16.91712" x="96.12" font-family="Helvetica" y="105.732">0.50</text>
          <text fill="#000000" text-anchor="end" font-size="16.91712" x="96.12" font-family="Helvetica" y="52.866">0.75</text>
          <text fill="#000000" text-anchor="end" font-size="16.91712" x="96.12" font-family="Helvetica" y="0.0">1.00</text>
        </g>
        <g transform="translate(106.8, 0.0)" id="grid">
          <line x1="0" y1="0.0" x2="427.2" y2="0.0" style="stroke: #000000; stroke-width: 0.5;"/>
          <line x1="0" y1="52.866" x2="427.2" y2="52.866" style="stroke: #000000; stroke-width: 0.5;"/>
          <line x1="0" y1="105.732" x2="427.2" y2="105.732" style="stroke: #000000; stroke-width: 0.5;"/>
          <line x1="0" y1="158.598" x2="427.2" y2="158.598" style="stroke: #000000; stroke-width: 0.5;"/>
          <line x1="0" y1="211.464" x2="427.2" y2="211.464" style="stroke: #000000; stroke-width: 0.5;"/>
        </g>
        <g transform="translate(106.8, 218.592)" id="labels">
          <text fill="#000000" text-anchor="middle" font-size="17.1072" x="0.0" font-family="Helvetica" y="19.008">10</text>
          <text fill="#000000" text-anchor="middle" font-size="17.1072" x="47.4666666666667" font-family="Helvetica" y="19.008">20</text>
          <text fill="#000000" text-anchor="middle" font-size="17.1072" x="94.9333333333333" font-family="Helvetica" y="19.008">30</text>
          <text fill="#000000" text-anchor="middle" font-size="17.1072" x="142.4" font-family="Helvetica" y="19.008">40</text>
          <text fill="#000000" text-anchor="middle" font-size="17.1072" x="189.866666666667" font-family="Helvetica" y="19.008">50</text>
          <text fill="#000000" text-anchor="middle" font-size="17.1072" x="237.333333333333" font-family="Helvetica" y="19.008">60</text>
          <text fill="#000000" text-anchor="middle" font-size="17.1072" x="284.8" font-family="Helvetica" y="19.008">70</text>
          <text fill="#000000" text-anchor="middle" font-size="17.1072" x="332.266666666667" font-family="Helvetica" y="19.008">80</text>
          <text fill="#000000" text-anchor="middle" font-size="17.1072" x="379.733333333333" font-family="Helvetica" y="19.008">90</text>
          <text fill="#000000" text-anchor="middle" font-size="17.1072" x="427.2" font-family="Helvetica" y="19.008">100</text>
        </g>
        <g transform="translate(106.8, 0.0)" id="graphs">
          <g class="graph_layer" id="component_graphs_graph_0">
            <polyline fill="none" points="0.0,186.577269537157 4.31515151515152,186.518163520129 8.63030303030303,181.95833025173 12.9454545454545,185.083918971997 17.2606060606061,186.034684651971 21.5757575757576,186.034684651971 25.8909090909091,185.216683181818 30.2060606060606,188.066688538392 34.5212121212121,180.182468126633 38.8363636363636,184.741818843552 43.1515151515152,178.661509651552 47.4666666666667,183.031625199906 51.7818181818182,176.461477691436 56.0969696969697,180.728887878389 60.4121212121212,176.852916054384 64.7272727272727,180.728887878389 69.0424242424242,176.908475655823 73.3575757575758,176.792407120173 77.6727272727273,177.126525752649 81.9878787878788,179.705875269917 86.3030303030303,183.08081619661 90.6181818181818,180.143404562557 94.9333333333333,178.837710516035 99.2484848484848,177.479343648685 103.563636363636,182.05914380859 107.878787878788,173.858470330336 112.193939393939,173.654644828376 116.509090909091,176.847869603392 120.824242424242,177.783959703238 125.139393939394,182.823506008345 129.454545454545,178.944963565913 133.769696969697,180.065423233226 138.084848484848,183.321853586098 142.4,179.084923650535 146.715151515152,181.804807619711 151.030303030303,179.552241427062 155.345454545455,180.643756761254 159.660606060606,179.241750161511 163.975757575758,180.917011448598 168.290909090909,178.789561501504 172.606060606061,175.725645562617 176.921212121212,183.266046696932 181.236363636364,182.490007488896 185.551515151515,177.639054128092 189.866666666667,177.330613588636 194.181818181818,176.531412870809 198.49696969697,178.89129289656 202.812121212121,175.245002214342 207.127272727273,175.794138022849 211.442424242424,172.904422401276 215.757575757576,169.611286265727 220.072727272727,168.556148812659 224.387878787879,169.929689913747 228.70303030303,172.110775438746 233.018181818182,171.968993490411 237.333333333333,173.07239922528 241.648484848485,177.46906551255 245.963636363636,172.284265884861 250.278787878788,177.950333256901 254.593939393939,178.475658360604 258.909090909091,177.561680914058 263.224242424242,174.068077318062 267.539393939394,177.706254362013 271.854545454545,176.173222605013 276.169696969697,174.761134624229 280.484848484848,174.391776397106 284.8,173.28226575706 289.115151515152,175.004661171347 293.430303030303,173.603859909352 297.745454545455,176.197979379295 302.060606060606,177.141790245178 306.375757575758,174.97592662952 310.690909090909,177.778773770449 315.006060606061,179.81055147972 319.321212121212,177.582296494612 323.636363636364,171.629898735895 327.951515151515,173.442722815495 332.266666666667,175.375451906512 336.581818181818,181.763610190058 340.89696969697,181.256273229619 345.212121212121,181.916918765037 349.527272727273,181.657935411338 353.842424242424,179.563190735524 358.157575757576,177.141790245178 362.472727272727,180.706163208281 366.787878787879,181.500122023927 371.10303030303,178.993343017102 375.418181818182,178.581730473285 379.733333333333,174.166297033209 384.048484848485,174.166297033209 388.363636363636,176.292214044856 392.678787878788,174.016731709469 396.993939393939,171.007691184409 401.309090909091,175.745201435183 405.624242424242,172.687590827308 409.939393939394,176.832734662613 414.254545454545,171.437420077691 418.569696969697,178.049509499291 422.884848484849,171.176431136305 427.2,176.878159354325" stroke="red" stroke-width="2"/>
          </g>
          <g class="graph_layer" id="component_graphs_graph_1">
            <polyline fill="none" points="0.0,66.7781052631579 4.31515151515152,48.7993846153846 8.63030303030303,58.1526 12.9454545454545,50.2227 17.2606060606061,52.866 21.5757575757576,42.2928 25.8909090909091,37.0062 30.2060606060606,52.866 34.5212121212121,52.866 38.8363636363636,50.2227 43.1515151515152,26.433 47.4666666666667,37.0062 51.7818181818182,47.5794 56.0969696969697,26.433 60.4121212121212,42.2928 64.7272727272727,60.7959 69.0424242424242,37.0062 73.3575757575758,37.0062 77.6727272727273,37.0062 81.9878787878788,37.0062 86.3030303030303,47.5794 90.6181818181818,47.5794 94.9333333333333,15.8598 99.2484848484848,37.0062 103.563636363636,47.5794 107.878787878788,37.0062 112.193939393939,47.5794 116.509090909091,31.7196 120.824242424242,47.5794 125.139393939394,50.2227 129.454545454545,26.433 133.769696969697,39.6495 138.084848484848,60.7959 142.4,58.1526 146.715151515152,47.5794 151.030303030303,44.9361 155.345454545455,47.5794 159.660606060606,44.9361 163.975757575758,50.2227 168.290909090909,44.9361 172.606060606061,31.7196 176.921212121212,55.5093 181.236363636364,42.2928 185.551515151515,26.433 189.866666666667,37.0062 194.181818181818,37.0062 198.49696969697,34.3629 202.812121212121,37.0062 207.127272727273,31.7196 211.442424242424,31.7196 215.757575757576,39.6495 220.072727272727,31.7196 224.387878787879,31.7196 228.70303030303,31.7196 233.018181818182,42.2928 237.333333333333,44.9361 241.648484848485,31.7196 245.963636363636,39.6495 250.278787878788,44.9361 254.593939393939,55.5093 258.909090909091,47.5794 263.224242424242,50.2227 267.539393939394,52.866 271.854545454545,44.9361 276.169696969697,42.2928 280.484848484848,42.2928 284.8,26.433 289.115151515152,26.433 293.430303030303,42.2928 297.745454545455,21.1464 302.060606060606,31.7196 306.375757575758,31.7196 310.690909090909,47.5794 315.006060606061,42.2928 319.321212121212,42.2928 323.636363636364,37.0062 327.951515151515,37.0062 332.266666666667,50.2227 336.581818181818,55.5093 340.89696969697,55.5093 345.212121212121,55.5093 349.527272727273,58.1526 353.842424242424,47.5794 358.157575757576,31.7196 362.472727272727,47.5794 366.787878787879,58.1526 371.10303030303,44.9361 375.418181818182,47.5794 379.733333333333,39.6495 384.048484848485,37.0062 388.363636363636,31.7196 392.678787878788,26.433 396.993939393939,37.0062 401.309090909091,42.2928 405.624242424242,21.1464 409.939393939394,58.1526 414.254545454545,26.433 418.569696969697,39.6495 422.884848484849,37.0062 427.2,44.9361" stroke="blue" stroke-width="2"/>
          </g>
          <g class="graph_layer" id="component_graphs_graph_2">
            <polyline fill="none" points="0.0,105.732 4.31515151515152,105.732 8.63030303030303,105.732 12.9454545454545,105.732 17.2606060606061,105.732 21.5757575757576,105.732 25.8909090909091,105.732 30.2060606060606,105.732 34.5212121212121,105.732 38.8363636363636,105.732 43.1515151515152,105.732 47.4666666666667,105.732 51.7818181818182,105.732 56.0969696969697,105.732 60.4121212121212,105.732 64.7272727272727,105.732 69.0424242424242,105.732 73.3575757575758,105.732 77.6727272727273,105.732 81.9878787878788,105.732 86.3030303030303,105.732 90.6181818181818,105.732 94.9333333333333,105.732 99.2484848484848,105.732 103.563636363636,105.732 107.878787878788,105.732 112.193939393939,105.732 116.509090909091,105.732 120.824242424242,105.732 125.139393939394,105.732 129.454545454545,105.732 133.769696969697,105.732 138.084848484848,105.732 142.4,105.732 146.715151515152,105.732 151.030303030303,105.732 155.345454545455,105.732 159.660606060606,105.732 163.975757575758,105.732 168.290909090909,105.732 172.606060606061,105.732 176.921212121212,105.732 181.236363636364,105.732 185.551515151515,105.732 189.866666666667,105.732 194.181818181818,105.732 198.49696969697,105.732 202.812121212121,105.732 207.127272727273,105.732 211.442424242424,105.732 215.757575757576,105.732 220.072727272727,105.732 224.387878787879,105.732 228.70303030303,105.732 233.018181818182,105.732 237.333333333333,105.732 241.648484848485,105.732 245.963636363636,105.732 250.278787878788,105.732 254.593939393939,105.732 258.909090909091,105.732 263.224242424242,105.732 267.539393939394,105.732 271.854545454545,105.732 276.169696969697,105.732 280.484848484848,105.732 284.8,105.732 289.115151515152,105.732 293.430303030303,105.732 297.745454545455,105.732 302.060606060606,105.732 306.375757575758,105.732 310.690909090909,105.732 315.006060606061,105.732 319.321212121212,105.732 323.636363636364,105.732 327.951515151515,105.732 332.266666666667,105.732 336.581818181818,105.732 340.89696969697,105.732 345.212121212121,105.732 349.527272727273,105.732 353.842424242424,105.732 358.157575757576,105.732 362.472727272727,105.732 366.787878787879,105.732 371.10303030303,105.732 375.418181818182,105.732 379.733333333333,105.732 384.048484848485,105.732 388.363636363636,105.732 392.678787878788,105.732 396.993939393939,105.732 401.309090909091,105.732 405.624242424242,105.732 409.939393939394,105.732 414.254545454545,105.732 418.569696969697,105.732 422.884848484849,105.732 427.2,105.732" stroke="green" stroke-width="2"/>
          </g>
        </g>
      </g>
    </g>
    <g transform="translate(30.0, 46.8)" id="legend">
      <rect width="10.8" fill="red" x="44.6" height="10.8" y="0"/>
      <text fill="#000000" font-size="13.608" x="64.04" font-family="Helvetica" style="color: #000000" y="10.206">Standard deviation</text>
      <rect width="10.8" fill="blue" x="271.4" height="10.8" y="0"/>
      <text fill="#000000" font-size="13.608" x="290.84" font-family="Helvetica" style="color: #000000" y="10.206">Max fitness</text>
      <rect width="10.8" fill="green" x="422.6" height="10.8" y="0"/>
      <text fill="#000000" font-size="13.608" x="442.04" font-family="Helvetica" style="color: #000000" y="10.206">Average fitness</text>
    </g>
  </g>
</svg>
