<?xml version="1.0" encoding="UTF-8"?>
<!DOCTYPE svg PUBLIC "-//W3C//DTD SVG 1.1//EN" "http://www.w3.org/Graphics/SVG/1.1/DTD/svg11.dtd">
<svg xmlns:xlink="http://www.w3.org/1999/xlink" viewBox="0 0 600 360" xmlns="http://www.w3.org/2000/svg">
  <g id="scruffy_graph">
    <g transform="translate(0.0, 0.0)" id="background">
      <rect width="600.0" fill="#ffffff" x="0" height="360.0" y="0"/>
    </g>
    <g transform="translate(30.0, 7.2)" id="title">
    </g>
    <g transform="translate(12.0, 93.6)" id="view">
      <g>
        <g transform="translate(0.0, 4.752)" id="values">
          <text fill="#000000" text-anchor="end" font-size="16.91712" x="96.12" font-family="Helvetica" y="211.464">0.00</text>
          <text fill="#000000" text-anchor="end" font-size="16.91712" x="96.12" font-family="Helvetica" y="158.598">0.01</text>
          <text fill="#000000" text-anchor="end" font-size="16.91712" x="96.12" font-family="Helvetica" y="105.732">0.01</text>
          <text fill="#000000" text-anchor="end" font-size="16.91712" x="96.12" font-family="Helvetica" y="52.866">0.02</text>
          <text fill="#000000" text-anchor="end" font-size="16.91712" x="96.12" font-family="Helvetica" y="0.0">0.02</text>
        </g>
        <g transform="translate(106.8, 0.0)" id="grid">
          <line x1="0" y1="0.0" x2="427.2" y2="0.0" style="stroke: #000000; stroke-width: 0.5;"/>
          <line x1="0" y1="52.866" x2="427.2" y2="52.866" style="stroke: #000000; stroke-width: 0.5;"/>
          <line x1="0" y1="105.732" x2="427.2" y2="105.732" style="stroke: #000000; stroke-width: 0.5;"/>
          <line x1="0" y1="158.598" x2="427.2" y2="158.598" style="stroke: #000000; stroke-width: 0.5;"/>
          <line x1="0" y1="211.464" x2="427.2" y2="211.464" style="stroke: #000000; stroke-width: 0.5;"/>
        </g>
        <g transform="translate(106.8, 218.592)" id="labels">
          <text fill="#000000" text-anchor="middle" font-size="17.1072" x="0.0" font-family="Helvetica" y="19.008">30</text>
          <text fill="#000000" text-anchor="middle" font-size="17.1072" x="47.4666666666667" font-family="Helvetica" y="19.008">60</text>
          <text fill="#000000" text-anchor="middle" font-size="17.1072" x="94.9333333333333" font-family="Helvetica" y="19.008">90</text>
          <text fill="#000000" text-anchor="middle" font-size="17.1072" x="142.4" font-family="Helvetica" y="19.008">120</text>
          <text fill="#000000" text-anchor="middle" font-size="17.1072" x="189.866666666667" font-family="Helvetica" y="19.008">150</text>
          <text fill="#000000" text-anchor="middle" font-size="17.1072" x="237.333333333333" font-family="Helvetica" y="19.008">180</text>
          <text fill="#000000" text-anchor="middle" font-size="17.1072" x="284.8" font-family="Helvetica" y="19.008">210</text>
          <text fill="#000000" text-anchor="middle" font-size="17.1072" x="332.266666666667" font-family="Helvetica" y="19.008">240</text>
          <text fill="#000000" text-anchor="middle" font-size="17.1072" x="379.733333333333" font-family="Helvetica" y="19.008">270</text>
          <text fill="#000000" text-anchor="middle" font-size="17.1072" x="427.2" font-family="Helvetica" y="19.008">300</text>
        </g>
        <g transform="translate(106.8, 0.0)" id="graphs">
          <g class="graph_layer" id="component_graphs_graph_0">
            <polyline fill="none" points="0.0,206.073332092324 1.42876254180602,206.9048808011 2.85752508361204,207.675795621514 4.28628762541806,208.088387526048 5.71505016722408,207.806974652029 7.1438127090301,208.073832464425 8.57257525083612,208.249635086245 10.0013377926421,207.785535678543 11.4301003344482,207.785535678543 12.8588628762542,207.879922188811 14.2876254180602,207.874137778621 15.7163879598662,207.919930407249 17.1451505016722,207.859375646097 18.5739130434783,207.727251087451 20.0026755852843,207.168346532175 21.4314381270903,207.242961104596 22.8602006688963,207.48031013246 24.2889632107023,207.667030601025 25.7177257525084,207.738835408505 27.1464882943144,207.81584991046 28.5752508361204,207.903899008263 30.0040133779264,207.903899008263 31.4327759197324,208.260391929131 32.8615384615385,208.323627898414 34.2903010033445,208.444285124362 35.7190635451505,208.385994612418 37.1478260869565,208.385994612418 38.5765886287625,208.422180168777 40.0053511705686,208.422180168777 41.4341137123746,208.422180168777 42.8628762541806,208.423019203219 44.2916387959866,208.423019203219 45.7204013377926,208.435047911839 47.1491638795987,208.480255843121 48.5779264214047,208.480255843121 50.0066889632107,208.545559979066 51.4354515050167,208.545559979066 52.8642140468227,208.545559979066 54.2929765886288,208.545559979066 55.7217391304348,208.545559979066 57.1505016722408,208.627035687121 58.5792642140468,208.76082196056 60.0080267558528,208.686617761696 61.4367892976589,208.686617761696 62.8655518394649,208.882713276483 64.2943143812709,208.917975161433 65.7230769230769,208.925382254239 67.1518394648829,208.982009646867 68.580602006689,208.982009646867 70.009364548495,209.037200495954 71.438127090301,209.037200495954 72.866889632107,209.128581431376 74.295652173913,209.128581431376 75.7244147157191,209.128581431376 77.1531772575251,209.128581431376 78.5819397993311,209.128581431376 80.0107023411371,209.176968963078 81.4394648829431,209.176968963078 82.8682274247492,209.176968963078 84.2969899665552,209.176968963078 85.7257525083612,209.176968963078 87.1545150501672,209.195644015398 88.5832775919732,209.195644015398 90.0120401337793,209.195644015398 91.4408026755853,209.195644015398 92.8695652173913,209.195644015398 94.2983277591973,209.195644015398 95.7270903010033,209.195644015398 97.1558528428094,209.165399235343 98.5846153846154,209.039164966686 100.013377926421,209.039164966686 101.442140468227,209.039164966686 102.870903010033,209.039164966686 104.299665551839,209.039164966686 105.728428093645,209.039164966686 107.157190635452,209.039164966686 108.585953177258,209.039164966686 110.014715719064,209.038577231326 111.44347826087,209.137726584176 112.872240802676,209.184161936815 114.301003344482,209.184161936815 115.729765886288,209.184161936815 117.158528428094,209.191880752764 118.5872909699,209.235557089362 120.016053511706,209.235557089362 121.444816053512,209.235557089362 122.873578595318,209.235557089362 124.302341137124,209.235557089362 125.73110367893,209.235557089362 127.159866220736,209.275763760789 128.588628762542,209.275763760789 130.017391304348,209.275763760789 131.446153846154,209.275763760789 132.87491638796,209.300547988247 134.303678929766,209.300547988247 135.732441471572,209.300547988247 137.161204013378,209.300547988247 138.589966555184,209.335459486768 140.01872909699,209.335459486768 141.447491638796,209.335459486768 142.876254180602,209.335459486768 144.305016722408,209.335459486768 145.733779264214,209.335459486768 147.16254180602,209.335459486768 148.591304347826,209.335459486768 150.020066889632,209.335459486768 151.448829431438,209.335459486768 152.877591973244,209.335459486768 154.30635451505,209.335459486768 155.735117056856,209.335459486768 157.163879598662,209.40509979323 158.592642140468,209.40509979323 160.021404682274,209.40509979323 161.45016722408,209.40509979323 162.878929765886,209.40509979323 164.307692307692,209.40509979323 165.736454849498,209.40509979323 167.165217391304,209.40509979323 168.59397993311,209.44126171437 170.022742474916,209.466455656433 171.451505016722,209.466455656433 172.880267558528,209.509782796364 174.309030100334,209.509782796364 175.73779264214,209.509782796364 177.166555183946,209.509782796364 178.595317725753,209.560827892395 180.024080267559,209.560827892395 181.452842809365,209.560827892395 182.881605351171,209.560827892395 184.310367892977,209.577350883654 185.739130434783,209.577350883654 187.167892976589,209.577350883654 188.596655518395,209.577350883654 190.025418060201,209.424279627184 191.454180602007,209.424279627184 192.882943143813,209.460878940061 194.311705685619,209.474682641719 195.740468227425,209.474682641719 197.169230769231,209.474682641719 198.597993311037,209.267172152853 200.026755852843,209.267172152853 201.455518394649,209.267172152853 202.884280936455,209.267172152853 204.313043478261,209.267172152853 205.741806020067,209.267172152853 207.170568561873,209.306204273744 208.599331103679,209.306204273744 210.028093645485,209.306204273744 211.456856187291,209.341689225686 212.885618729097,209.341689225686 214.314381270903,209.341689225686 215.743143812709,209.341689225686 217.171906354515,209.341689225686 218.600668896321,209.341689225686 220.029431438127,209.341689225686 221.458193979933,209.341689225686 222.886956521739,209.341689225686 224.315719063545,209.341689225686 225.744481605351,209.341689225686 227.173244147157,209.341689225686 228.602006688963,209.348624436073 230.030769230769,209.348624436073 231.459531772575,209.348624436073 232.888294314381,209.348624436073 234.317056856187,209.348624436073 235.745819397993,209.348624436073 237.174581939799,209.348624436073 238.603344481605,209.348624436073 240.032107023411,209.351771274516 241.460869565217,209.351771274516 242.889632107023,209.351771274516 244.318394648829,209.355197413279 245.747157190635,209.355197413279 247.175919732441,209.355197413279 248.604682274247,209.355197413279 250.033444816054,209.355197413279 251.46220735786,209.355197413279 252.890969899666,209.355197413279 254.319732441472,209.355197413279 255.748494983278,209.358163338562 257.177257525084,209.358163338562 258.60602006689,209.358163338562 260.034782608696,209.358163338562 261.463545150502,209.358163338562 262.892307692308,209.358163338562 264.321070234114,209.358163338562 265.74983277592,209.358163338562 267.178595317726,209.358163338562 268.607357859532,209.358163338562 270.036120401338,209.358163338562 271.464882943144,209.358163338562 272.89364548495,209.358163338562 274.322408026756,209.358163338562 275.751170568562,209.358163338562 277.179933110368,209.358163338562 278.608695652174,209.358163338562 280.03745819398,209.358163338562 281.466220735786,209.358163338562 282.894983277592,209.358163338562 284.323745819398,209.358163338562 285.752508361204,209.358163338562 287.18127090301,209.358163338562 288.610033444816,209.358163338562 290.038795986622,209.358163338562 291.467558528428,209.358163338562 292.896321070234,209.358163338562 294.32508361204,209.358163338562 295.753846153846,209.358163338562 297.182608695652,209.358163338562 298.611371237458,209.358163338562 300.040133779264,209.357621701925 301.46889632107,209.357621701925 302.897658862876,209.357621701925 304.326421404682,209.357621701925 305.755183946488,209.397890989604 307.183946488294,209.417959783389 308.6127090301,209.417959783389 310.041471571906,209.417959783389 311.470234113712,209.417959783389 312.898996655518,209.417959783389 314.327759197324,209.417959783389 315.75652173913,209.417959783389 317.185284280936,209.417959783389 318.614046822742,209.417959783389 320.042809364549,209.417959783389 321.471571906355,209.417959783389 322.900334448161,209.417959783389 324.329096989967,209.417959783389 325.757859531773,209.417959783389 327.186622073579,209.417959783389 328.615384615385,209.417959783389 330.044147157191,209.417959783389 331.472909698997,209.417959783389 332.901672240803,209.417959783389 334.330434782609,209.428142230517 335.759197324415,209.428142230517 337.187959866221,209.428142230517 338.616722408027,209.428142230517 340.045484949833,209.428142230517 341.474247491639,209.428142230517 342.903010033445,209.456036170469 344.331772575251,209.456036170469 345.760535117057,209.456036170469 347.189297658863,209.456036170469 348.618060200669,209.456036170469 350.046822742475,209.456036170469 351.475585284281,209.48113379717 352.904347826087,209.48113379717 354.333110367893,209.48113379717 355.761872909699,209.48113379717 357.190635451505,209.48113379717 358.619397993311,209.48113379717 360.048160535117,209.48113379717 361.476923076923,209.430448293438 362.905685618729,209.430448293438 364.334448160535,209.461370686694 365.763210702341,209.461370686694 367.191973244147,209.461370686694 368.620735785953,209.461370686694 370.049498327759,209.461370686694 371.478260869565,209.461370686694 372.907023411371,209.461370686694 374.335785953177,209.461370686694 375.764548494983,209.461370686694 377.193311036789,209.48908984751 378.622073578595,209.48908984751 380.050836120401,209.48908984751 381.479598662207,209.48908984751 382.908361204013,209.48908984751 384.337123745819,209.524462979884 385.765886287625,209.467633403432 387.194648829431,209.467633403432 388.623411371237,209.467633403432 390.052173913043,209.511488767069 391.48093645485,209.511488767069 392.909698996656,209.511488767069 394.338461538462,209.511488767069 395.767224080268,209.511488767069 397.195986622074,209.511488767069 398.62474916388,209.511488767069 400.053511705686,209.475667441139 401.482274247492,209.475667441139 402.911036789298,209.475667441139 404.339799331104,209.475667441139 405.76856187291,209.475667441139 407.197324414716,209.475667441139 408.626086956522,209.475667441139 410.054849498328,209.475667441139 411.483612040134,209.475667441139 412.91237458194,209.475667441139 414.341137123746,209.475667441139 415.769899665552,209.475667441139 417.198662207358,209.475667441139 418.627424749164,209.475667441139 420.05618729097,209.475667441139 421.484949832776,209.475667441139 422.913712374582,209.475667441139 424.342474916388,209.475667441139 425.771237458194,209.475667441139 427.2,209.475667441139" stroke="red" stroke-width="2"/>
          </g>
          <g class="graph_layer" id="component_graphs_graph_1">
            <polyline fill="none" points="0.0,8.46393896331489 1.42876254180602,8.46393896331489 2.85752508361204,8.46393896331489 4.28628762541806,8.46393896331489 5.71505016722408,6.98152453910058 7.1438127090301,6.98152453910058 8.57257525083612,6.98152453910058 10.0013377926421,3.79199671343741 11.4301003344482,3.79199671343741 12.8588628762542,3.79199671343741 14.2876254180602,3.79199671343741 15.7163879598662,3.79199671343741 17.1451505016722,3.79199671343741 18.5739130434783,3.79199671343741 20.0026755852843,0.0 21.4314381270903,0.0 22.8602006688963,0.0 24.2889632107023,0.0 25.7177257525084,0.0 27.1464882943144,0.0 28.5752508361204,0.0 30.0040133779264,0.0 31.4327759197324,0.0 32.8615384615385,0.0 34.2903010033445,0.0 35.7190635451505,0.0 37.1478260869565,0.0 38.5765886287625,0.0 40.0053511705686,0.0 41.4341137123746,0.0 42.8628762541806,0.0 44.2916387959866,0.0 45.7204013377926,0.0 47.1491638795987,0.0 48.5779264214047,0.0 50.0066889632107,0.0 51.4354515050167,0.0 52.8642140468227,0.0 54.2929765886288,0.0 55.7217391304348,0.0 57.1505016722408,0.0 58.5792642140468,0.0 60.0080267558528,0.0 61.4367892976589,0.0 62.8655518394649,0.0 64.2943143812709,0.0 65.7230769230769,0.0 67.1518394648829,0.0 68.580602006689,0.0 70.009364548495,0.0 71.438127090301,0.0 72.866889632107,0.0 74.295652173913,0.0 75.7244147157191,0.0 77.1531772575251,0.0 78.5819397993311,0.0 80.0107023411371,0.0 81.4394648829431,0.0 82.8682274247492,0.0 84.2969899665552,0.0 85.7257525083612,0.0 87.1545150501672,0.0 88.5832775919732,0.0 90.0120401337793,0.0 91.4408026755853,0.0 92.8695652173913,0.0 94.2983277591973,0.0 95.7270903010033,0.0 97.1558528428094,0.0 98.5846153846154,0.0 100.013377926421,0.0 101.442140468227,0.0 102.870903010033,0.0 104.299665551839,0.0 105.728428093645,0.0 107.157190635452,0.0 108.585953177258,0.0 110.014715719064,0.0 111.44347826087,0.0 112.872240802676,0.0 114.301003344482,0.0 115.729765886288,0.0 117.158528428094,0.0 118.5872909699,0.0 120.016053511706,0.0 121.444816053512,0.0 122.873578595318,0.0 124.302341137124,0.0 125.73110367893,0.0 127.159866220736,0.0 128.588628762542,0.0 130.017391304348,0.0 131.446153846154,0.0 132.87491638796,0.0 134.303678929766,0.0 135.732441471572,0.0 137.161204013378,0.0 138.589966555184,0.0 140.01872909699,0.0 141.447491638796,0.0 142.876254180602,0.0 144.305016722408,0.0 145.733779264214,0.0 147.16254180602,0.0 148.591304347826,0.0 150.020066889632,0.0 151.448829431438,0.0 152.877591973244,0.0 154.30635451505,0.0 155.735117056856,0.0 157.163879598662,0.0 158.592642140468,0.0 160.021404682274,0.0 161.45016722408,0.0 162.878929765886,0.0 164.307692307692,0.0 165.736454849498,0.0 167.165217391304,0.0 168.59397993311,0.0 170.022742474916,0.0 171.451505016722,0.0 172.880267558528,0.0 174.309030100334,0.0 175.73779264214,0.0 177.166555183946,0.0 178.595317725753,0.0 180.024080267559,0.0 181.452842809365,0.0 182.881605351171,0.0 184.310367892977,0.0 185.739130434783,0.0 187.167892976589,0.0 188.596655518395,0.0 190.025418060201,0.0 191.454180602007,0.0 192.882943143813,0.0 194.311705685619,0.0 195.740468227425,0.0 197.169230769231,0.0 198.597993311037,0.0 200.026755852843,0.0 201.455518394649,0.0 202.884280936455,0.0 204.313043478261,0.0 205.741806020067,0.0 207.170568561873,0.0 208.599331103679,0.0 210.028093645485,0.0 211.456856187291,0.0 212.885618729097,0.0 214.314381270903,0.0 215.743143812709,0.0 217.171906354515,0.0 218.600668896321,0.0 220.029431438127,0.0 221.458193979933,0.0 222.886956521739,0.0 224.315719063545,0.0 225.744481605351,0.0 227.173244147157,0.0 228.602006688963,0.0 230.030769230769,0.0 231.459531772575,0.0 232.888294314381,0.0 234.317056856187,0.0 235.745819397993,0.0 237.174581939799,0.0 238.603344481605,0.0 240.032107023411,0.0 241.460869565217,0.0 242.889632107023,0.0 244.318394648829,0.0 245.747157190635,0.0 247.175919732441,0.0 248.604682274247,0.0 250.033444816054,0.0 251.46220735786,0.0 252.890969899666,0.0 254.319732441472,0.0 255.748494983278,0.0 257.177257525084,0.0 258.60602006689,0.0 260.034782608696,0.0 261.463545150502,0.0 262.892307692308,0.0 264.321070234114,0.0 265.74983277592,0.0 267.178595317726,0.0 268.607357859532,0.0 270.036120401338,0.0 271.464882943144,0.0 272.89364548495,0.0 274.322408026756,0.0 275.751170568562,0.0 277.179933110368,0.0 278.608695652174,0.0 280.03745819398,0.0 281.466220735786,0.0 282.894983277592,0.0 284.323745819398,0.0 285.752508361204,0.0 287.18127090301,0.0 288.610033444816,0.0 290.038795986622,0.0 291.467558528428,0.0 292.896321070234,0.0 294.32508361204,0.0 295.753846153846,0.0 297.182608695652,0.0 298.611371237458,0.0 300.040133779264,0.0 301.46889632107,0.0 302.897658862876,0.0 304.326421404682,0.0 305.755183946488,0.0 307.183946488294,0.0 308.6127090301,0.0 310.041471571906,0.0 311.470234113712,0.0 312.898996655518,0.0 314.327759197324,0.0 315.75652173913,0.0 317.185284280936,0.0 318.614046822742,0.0 320.042809364549,0.0 321.471571906355,0.0 322.900334448161,0.0 324.329096989967,0.0 325.757859531773,0.0 327.186622073579,0.0 328.615384615385,0.0 330.044147157191,0.0 331.472909698997,0.0 332.901672240803,0.0 334.330434782609,0.0 335.759197324415,0.0 337.187959866221,0.0 338.616722408027,0.0 340.045484949833,0.0 341.474247491639,0.0 342.903010033445,0.0 344.331772575251,0.0 345.760535117057,0.0 347.189297658863,0.0 348.618060200669,0.0 350.046822742475,0.0 351.475585284281,0.0 352.904347826087,0.0 354.333110367893,0.0 355.761872909699,0.0 357.190635451505,0.0 358.619397993311,0.0 360.048160535117,0.0 361.476923076923,0.0 362.905685618729,0.0 364.334448160535,0.0 365.763210702341,0.0 367.191973244147,0.0 368.620735785953,0.0 370.049498327759,0.0 371.478260869565,0.0 372.907023411371,0.0 374.335785953177,0.0 375.764548494983,0.0 377.193311036789,0.0 378.622073578595,0.0 380.050836120401,0.0 381.479598662207,0.0 382.908361204013,0.0 384.337123745819,0.0 385.765886287625,0.0 387.194648829431,0.0 388.623411371237,0.0 390.052173913043,0.0 391.48093645485,0.0 392.909698996656,0.0 394.338461538462,0.0 395.767224080268,0.0 397.195986622074,0.0 398.62474916388,0.0 400.053511705686,0.0 401.482274247492,0.0 402.911036789298,0.0 404.339799331104,0.0 405.76856187291,0.0 407.197324414716,0.0 408.626086956522,0.0 410.054849498328,0.0 411.483612040134,0.0 412.91237458194,0.0 414.341137123746,0.0 415.769899665552,0.0 417.198662207358,0.0 418.627424749164,0.0 420.05618729097,0.0 421.484949832776,0.0 422.913712374582,0.0 424.342474916388,0.0 425.771237458194,0.0 427.2,0.0" stroke="blue" stroke-width="2"/>
          </g>
          <g class="graph_layer" id="component_graphs_graph_2">
            <polyline fill="none" points="0.0,24.885081084719 1.42876254180602,19.826326134842 2.85752508361204,18.0718310259842 4.28628762541806,17.4937393539202 5.71505016722408,15.9817495440219 7.1438127090301,15.6237571850005 8.57257525083612,15.4057133105987 10.0013377926421,14.6157511577537 11.4301003344482,14.6157511577537 12.8588628762542,14.1491793447301 14.2876254180602,13.7965336229935 15.7163879598662,13.7291980597592 17.1451505016722,13.2677625512751 18.5739130434783,12.9477473304735 20.0026755852843,12.3613747384546 21.4314381270903,12.1215461372167 22.8602006688963,11.5932489764737 24.2889632107023,11.1742663841164 25.7177257525084,10.9740364655171 27.1464882943144,10.7815524916851 28.5752508361204,10.5880308623964 30.0040133779264,10.5880308623964 31.4327759197324,10.1742568094844 32.8615384615385,10.1227784268648 34.2903010033445,9.91884389944209 35.7190635451505,9.64308662094618 37.1478260869565,9.64308662094618 38.5765886287625,9.61061257430114 40.0053511705686,9.61061257430114 41.4341137123746,9.61061257430114 42.8628762541806,9.60995466910379 44.2916387959866,9.60995466910379 45.7204013377926,9.60013119112315 47.1491638795987,9.34334097007002 48.5779264214047,9.34334097007002 50.0066889632107,9.2754724858477 51.4354515050167,9.2754724858477 52.8642140468227,9.2754724858477 54.2929765886288,9.2754724858477 55.7217391304348,9.2754724858477 57.1505016722408,9.17607357396929 58.5792642140468,9.01512150975628 60.0080267558528,8.74485508275859 61.4367892976589,8.74485508275859 62.8655518394649,8.43796594260039 64.2943143812709,8.41129800483739 65.7230769230769,8.4047902284421 67.1518394648829,8.29910010309018 68.580602006689,8.29910010309018 70.009364548495,8.20059356019956 71.438127090301,8.20059356019956 72.866889632107,7.93807343509428 74.295652173913,7.93807343509428 75.7244147157191,7.93807343509428 77.1531772575251,7.93807343509428 78.5819397993311,7.93807343509428 80.0107023411371,7.88987706951733 81.4394648829431,7.88987706951733 82.8682274247492,7.88987706951733 84.2969899665552,7.88987706951733 85.7257525083612,7.88987706951733 87.1545150501672,7.86959979184024 88.5832775919732,7.86959979184024 90.0120401337793,7.86959979184024 91.4408026755853,7.86959979184024 92.8695652173913,7.86959979184024 94.2983277591973,7.86959979184024 95.7270903010033,7.86959979184024 97.1558528428094,7.69470439691733 98.5846153846154,7.45760662246647 100.013377926421,7.45760662246647 101.442140468227,7.45760662246647 102.870903010033,7.45760662246647 104.299665551839,7.45760662246647 105.728428093645,7.45760662246647 107.157190635452,7.45760662246647 108.585953177258,7.45760662246647 110.014715719064,7.2897122842287 111.44347826087,7.11818632672964 112.872240802676,7.02864153409919 114.301003344482,7.02864153409919 115.729765886288,7.02864153409919 117.158528428094,7.02173982333767 118.5872909699,6.91781973746751 120.016053511706,6.91781973746751 121.444816053512,6.91781973746751 122.873578595318,6.91781973746751 124.302341137124,6.91781973746751 125.73110367893,6.91781973746751 127.159866220736,6.80382162074685 128.588628762542,6.80382162074685 130.017391304348,6.80382162074685 131.446153846154,6.80382162074685 132.87491638796,6.77960085318327 134.303678929766,6.77960085318327 135.732441471572,6.77960085318327 137.161204013378,6.77960085318327 138.589966555184,6.74214222300316 140.01872909699,6.74214222300316 141.447491638796,6.74214222300316 142.876254180602,6.74214222300316 144.305016722408,6.74214222300316 145.733779264214,6.74214222300316 147.16254180602,6.74214222300316 148.591304347826,6.74214222300316 150.020066889632,6.74214222300316 151.448829431438,6.74214222300316 152.877591973244,6.74214222300316 154.30635451505,6.74214222300316 155.735117056856,6.74214222300316 157.163879598662,6.50698000766317 158.592642140468,6.50698000766317 160.021404682274,6.50698000766317 161.45016722408,6.50698000766317 162.878929765886,6.50698000766317 164.307692307692,6.50698000766317 165.736454849498,6.50698000766317 167.165217391304,6.50698000766317 168.59397993311,6.39261241359725 170.022742474916,6.36811937657436 171.451505016722,6.36811937657436 172.880267558528,6.31638096228596 174.309030100334,6.31638096228596 175.73779264214,6.31638096228596 177.166555183946,6.31638096228596 178.595317725753,6.24849557776849 180.024080267559,6.24849557776849 181.452842809365,6.24849557776849 182.881605351171,6.24849557776849 184.310367892977,6.23411305765225 185.739130434783,6.23411305765225 187.167892976589,6.23411305765225 188.596655518395,6.23411305765225 190.025418060201,6.00194972618405 191.454180602007,6.00194972618405 192.882943143813,5.94652256502422 194.311705685619,5.93295755972093 195.740468227425,5.93295755972093 197.169230769231,5.93295755972093 198.597993311037,5.66312482675119 200.026755852843,5.66312482675119 201.455518394649,5.66312482675119 202.884280936455,5.66312482675119 204.313043478261,5.66312482675119 205.741806020067,5.66312482675119 207.170568561873,5.60968720809069 208.599331103679,5.60968720809069 210.028093645485,5.60968720809069 211.456856187291,5.56813863800889 212.885618729097,5.56813863800889 214.314381270903,5.56813863800889 215.743143812709,5.56813863800889 217.171906354515,5.56813863800889 218.600668896321,5.56813863800889 220.029431438127,5.56813863800889 221.458193979933,5.56813863800889 222.886956521739,5.56813863800889 224.315719063545,5.56813863800889 225.744481605351,5.56813863800889 227.173244147157,5.56813863800889 228.602006688963,5.56160523665667 230.030769230769,5.56160523665667 231.459531772575,5.56160523665667 232.888294314381,5.56160523665667 234.317056856187,5.56160523665667 235.745819397993,5.56160523665667 237.174581939799,5.56160523665667 238.603344481605,5.56160523665667 240.032107023411,5.55852144808168 241.460869565217,5.55852144808168 242.889632107023,5.55852144808168 244.318394648829,5.30308520387752 245.747157190635,5.30308520387752 247.175919732441,5.30308520387752 248.604682274247,5.30308520387752 250.033444816054,5.30308520387752 251.46220735786,5.30308520387752 252.890969899666,5.30308520387752 254.319732441472,5.30308520387752 255.748494983278,5.30040460196329 257.177257525084,5.30040460196329 258.60602006689,5.30040460196329 260.034782608696,5.30040460196329 261.463545150502,5.30040460196329 262.892307692308,5.30040460196329 264.321070234114,5.30040460196329 265.74983277592,5.30040460196329 267.178595317726,5.30040460196329 268.607357859532,5.30040460196329 270.036120401338,5.30040460196329 271.464882943144,5.30040460196329 272.89364548495,5.30040460196329 274.322408026756,5.30040460196329 275.751170568562,5.30040460196329 277.179933110368,5.30040460196329 278.608695652174,5.30040460196329 280.03745819398,5.30040460196329 281.466220735786,5.30040460196329 282.894983277592,5.30040460196329 284.323745819398,5.30040460196329 285.752508361204,5.30040460196329 287.18127090301,5.30040460196329 288.610033444816,5.30040460196329 290.038795986622,5.30040460196329 291.467558528428,5.30040460196329 292.896321070234,5.30040460196329 294.32508361204,5.30040460196329 295.753846153846,5.30040460196329 297.182608695652,5.30040460196329 298.611371237458,5.30040460196329 300.040133779264,5.15216146848692 301.46889632107,5.15216146848692 302.897658862876,5.15216146848692 304.326421404682,5.15216146848692 305.755183946488,5.09167011334713 307.183946488294,5.06813839933102 308.6127090301,5.06813839933102 310.041471571906,5.06813839933102 311.470234113712,5.06813839933102 312.898996655518,5.06813839933102 314.327759197324,5.06813839933102 315.75652173913,5.06813839933102 317.185284280936,5.06813839933102 318.614046822742,5.06813839933102 320.042809364549,5.06813839933102 321.471571906355,5.06813839933102 322.900334448161,5.06813839933102 324.329096989967,5.06813839933102 325.757859531773,5.06813839933102 327.186622073579,5.06813839933102 328.615384615385,5.06813839933102 330.044147157191,5.06813839933102 331.472909698997,5.06813839933102 332.901672240803,5.06813839933102 334.330434782609,4.94916932312626 335.759197324415,4.94916932312626 337.187959866221,4.94916932312626 338.616722408027,4.94916932312626 340.045484949833,4.94916932312626 341.474247491639,4.94916932312626 342.903010033445,4.91225853998256 344.331772575251,4.91225853998256 345.760535117057,4.91225853998256 347.189297658863,4.91225853998256 348.618060200669,4.91225853998256 350.046822742475,4.91225853998256 351.475585284281,4.87925378283637 352.904347826087,4.87925378283637 354.333110367893,4.87925378283637 355.761872909699,4.87925378283637 357.190635451505,4.87925378283637 358.619397993311,4.87925378283637 360.048160535117,4.87925378283637 361.476923076923,4.70971954737018 362.905685618729,4.70971954737018 364.334448160535,4.67275983060932 365.763210702341,4.67275983060932 367.191973244147,4.67275983060932 368.620735785953,4.67275983060932 370.049498327759,4.67275983060932 371.478260869565,4.67275983060932 372.907023411371,4.67275983060932 374.335785953177,4.67275983060932 375.764548494983,4.67275983060932 377.193311036789,4.63655768668977 378.622073578595,4.63655768668977 380.050836120401,4.63655768668977 381.479598662207,4.63655768668977 382.908361204013,4.63655768668977 384.337123745819,4.55510853511427 385.765886287625,4.34483556539649 387.194648829431,4.34483556539649 388.623411371237,4.34483556539649 390.052173913043,4.27901774219822 391.48093645485,4.27901774219822 392.909698996656,4.27901774219822 394.338461538462,4.27901774219822 395.767224080268,4.27901774219822 397.195986622074,4.27901774219822 398.62474916388,4.27901774219822 400.053511705686,4.10988763183209 401.482274247492,4.10988763183209 402.911036789298,4.10988763183209 404.339799331104,4.10988763183209 405.76856187291,4.10988763183209 407.197324414716,4.10988763183209 408.626086956522,4.10988763183209 410.054849498328,4.10988763183209 411.483612040134,4.10988763183209 412.91237458194,4.10988763183209 414.341137123746,4.10988763183209 415.769899665552,4.10988763183209 417.198662207358,4.10988763183209 418.627424749164,4.10988763183209 420.05618729097,4.10988763183209 421.484949832776,4.10988763183209 422.913712374582,4.10988763183209 424.342474916388,4.10988763183209 425.771237458194,4.10988763183209 427.2,4.10988763183209" stroke="green" stroke-width="2"/>
          </g>
        </g>
      </g>
    </g>
    <g transform="translate(30.0, 46.8)" id="legend">
      <rect width="10.8" fill="red" x="44.6" height="10.8" y="0"/>
      <text fill="#000000" font-size="13.608" x="64.04" font-family="Helvetica" style="color: #000000" y="10.206">Standard deviation</text>
      <rect width="10.8" fill="blue" x="271.4" height="10.8" y="0"/>
      <text fill="#000000" font-size="13.608" x="290.84" font-family="Helvetica" style="color: #000000" y="10.206">Max fitness</text>
      <rect width="10.8" fill="green" x="422.6" height="10.8" y="0"/>
      <text fill="#000000" font-size="13.608" x="442.04" font-family="Helvetica" style="color: #000000" y="10.206">Average fitness</text>
    </g>
  </g>
</svg>
